<svg xmlns="http://www.w3.org/2000/svg" viewBox="0 0 360 64" fill="none">
  <defs><filter id="shadow" x="-10%" y="-30%" width="125%" height="160%"><feDropShadow dx="1.5" dy="-2.5" stdDeviation="4" flood-color="#3B0A8C" flood-opacity="0.45"/></filter></defs>
  <g filter="url(#shadow)" transform="scale(0.125)">
    <path d="M 420.1,488.5 L 455.7,488.5 L 456.4,487.7 L 457.2,487.0 L 448.5,478.8 L 439.7,470.7 L 430.3,461.7 L 420.8,452.7 L 420.3,451.1 L 419.8,449.4 L 418.1,449.4 L 416.4,449.4 L 414.3,445.9 L 412.1,442.5 L 408.0,438.6 L 403.9,434.6 L 402.9,434.6 L 402.0,434.6 L 399.2,431.3 L 396.4,427.9 L 395.5,426.3 L 394.6,424.7 L 389.3,420.4 L 384.0,416.1 L 384.0,415.0 L 384.0,413.8 L 375.3,405.2 L 366.5,396.7 L 362.1,400.6 L 357.8,404.6 L 349.7,412.1 L 341.6,419.6 L 341.6,420.9 L 341.6,422.2 L 355.0,435.6 L 368.3,448.9 L 368.3,450.5 L 368.3,452.1 L 366.7,452.9 L 365.1,453.8 L 339.3,454.4 L 313.5,455.1 L 306.4,447.9 L 299.3,440.6 L 297.5,438.8 L 295.6,436.9 L 258.6,398.9 L 221.5,360.9 L 210.6,349.4 L 199.8,338.0 L 199.8,336.3 L 199.8,334.7 L 210.2,325.4 L 220.5,316.1 L 223.9,313.2 L 227.2,310.3 L 228.1,310.3 L 229.0,310.3 L 278.6,359.7 L 328.3,409.0 L 330.3,410.4 L 332.4,411.8 L 335.3,409.3 L 338.3,406.9 L 348.0,397.7 L 357.8,388.6 L 306.9,337.7 L 256.0,286.8 L 256.0,285.4 L 256.0,283.9 L 260.9,279.4 L 265.7,274.9 L 283.1,259.2 L 300.6,243.6 L 311.0,234.1 L 321.4,224.5 L 321.4,223.3 L 321.4,222.0 L 312.9,213.2 L 304.5,204.4 L 301.0,201.6 L 297.5,198.8 L 295.5,200.1 L 293.6,201.5 L 260.3,232.3 L 227.0,263.1 L 199.8,288.3 L 172.7,313.4 L 145.3,339.1 L 117.9,364.8 L 117.9,386.6 L 117.9,408.4 L 117.3,429.7 L 116.7,451.0 L 99.1,451.4 L 81.5,451.8 L 79.9,451.0 L 78.3,450.2 L 78.0,320.2 L 77.8,190.2 L 58.5,190.2 L 39.1,190.2 L 38.9,337.0 L 38.7,483.8 L 39.5,484.7 L 40.4,485.5 L 94.1,485.8 L 147.8,486.1 L 151.5,485.5 L 155.2,484.8 L 155.6,430.5 L 156.1,376.2 L 163.1,369.0 L 170.0,361.9 L 171.0,361.9 L 172.0,361.9 L 234.4,425.0 L 296.9,488.0 L 340.7,488.3 L 384.5,488.5 L 420.1,488.5 Z M 121.1,300.0 L 123.3,299.7 L 153.5,272.1 L 183.6,244.5 L 191.1,237.6 L 198.5,230.7 L 216.9,214.0 L 235.3,197.4 L 244.1,189.6 L 252.9,181.9 L 265.3,170.7 L 277.6,159.5 L 296.1,143.1 L 314.5,126.7 L 320.0,121.6 L 325.6,116.5 L 338.7,104.6 L 351.8,92.8 L 351.8,92.2 L 351.7,91.6 L 344.4,82.9 L 337.0,74.2 L 337.0,73.2 L 337.0,72.1 L 343.3,71.5 L 349.5,71.0 L 361.4,69.5 L 373.4,68.1 L 392.7,66.2 L 412.1,64.3 L 416.9,63.8 L 421.7,63.3 L 422.2,64.6 L 422.8,66.0 L 421.9,71.0 L 421.1,76.0 L 418.3,88.4 L 415.5,100.8 L 411.1,121.3 L 406.7,141.8 L 405.7,141.8 L 404.7,141.8 L 394.6,131.7 L 384.5,121.6 L 383.1,121.6 L 381.7,121.6 L 360.5,141.0 L 339.3,160.5 L 325.5,173.0 L 311.7,185.5 L 311.7,187.1 L 311.7,188.6 L 322.5,199.7 L 333.3,210.9 L 334.9,210.9 L 336.4,210.9 L 345.1,202.8 L 353.9,194.8 L 365.5,184.5 L 377.1,174.3 L 379.3,171.9 L 381.6,169.4 L 382.6,169.4 L 383.7,169.4 L 393.8,179.8 L 403.8,190.1 L 415.5,202.1 L 427.2,214.1 L 428.5,212.7 L 429.8,211.3 L 431.8,201.7 L 433.9,192.0 L 443.4,151.9 L 453.0,111.9 L 457.2,94.4 L 461.5,76.9 L 467.4,51.6 L 473.3,26.3 L 473.3,24.6 L 473.3,23.0 L 469.3,23.0 L 465.3,23.0 L 449.3,24.8 L 433.3,26.6 L 412.1,29.0 L 390.9,31.3 L 356.4,35.0 L 321.8,38.7 L 301.6,41.0 L 281.3,43.2 L 274.4,43.8 L 267.5,44.3 L 266.3,44.7 L 265.2,45.1 L 267.8,48.7 L 270.5,52.4 L 285.8,68.8 L 301.2,85.1 L 300.9,87.0 L 300.7,88.8 L 286.8,101.6 L 273.0,114.5 L 216.4,166.0 L 159.8,217.5 L 158.5,218.0 L 157.3,218.5 L 156.5,217.2 L 155.7,215.9 L 155.6,155.1 L 155.6,94.2 L 153.9,92.7 L 152.2,91.2 L 95.7,91.4 L 39.1,91.6 L 38.9,132.3 L 38.7,172.9 L 40.2,174.2 L 41.7,175.4 L 59.8,175.4 L 77.8,175.4 L 78.5,152.4 L 79.3,129.4 L 79.9,128.7 L 80.6,128.1 L 98.6,127.4 L 116.7,126.8 L 117.4,128.0 L 118.1,129.1 L 118.1,213.9 L 118.0,298.8 L 118.5,299.5 L 119.0,300.3 L 121.1,300.0 Z" fill="#5B21B6" fill-rule="evenodd"/>
  </g>
  <g filter="url(#shadow)">
    <text x="56.0" y="61" font-family="Inter, -apple-system, BlinkMacSystemFont, sans-serif" font-size="46" font-weight="700" fill="#F8F7FF">o</text>
    <text x="86.5" y="61" font-family="Inter, -apple-system, BlinkMacSystemFont, sans-serif" font-size="46" font-weight="700" fill="#F8F7FF">n</text>
    <text x="117.0" y="61" font-family="Inter, -apple-system, BlinkMacSystemFont, sans-serif" font-size="46" font-weight="700" fill="#F8F7FF">v</text>
    <text x="145.5" y="61" font-family="Inter, -apple-system, BlinkMacSystemFont, sans-serif" font-size="46" font-weight="700" fill="#F8F7FF">e</text>
    <text x="174.0" y="61" font-family="Inter, -apple-system, BlinkMacSystemFont, sans-serif" font-size="46" font-weight="700" fill="#F8F7FF">r</text>
    <text x="198.5" y="61" font-family="Inter, -apple-system, BlinkMacSystemFont, sans-serif" font-size="46" font-weight="700" fill="#F8F7FF">t</text>
    <text x="220.0" y="61" font-family="Inter, -apple-system, BlinkMacSystemFont, sans-serif" font-size="46" font-weight="700" fill="#5B21B6">A</text>
    <text x="252.0" y="61" font-family="Inter, -apple-system, BlinkMacSystemFont, sans-serif" font-size="46" font-weight="700" fill="#5B21B6">I</text>
  </g>
</svg>