<svg xmlns="http://www.w3.org/2000/svg" width="512" height="512" viewBox="0 0 512 512">
  <defs><filter id="shadow" x="-20%" y="-20%" width="150%" height="150%"><feDropShadow dx="2" dy="-3" stdDeviation="6" flood-color="#3B0A8C" flood-opacity="0.6"/></filter></defs>
  <path filter="url(#shadow)" d="m 420.1,488.5 h 35.6 l 0.7,-0.8 0.8,-0.7 -8.7,-8.2 -8.8,-8.1 -9.4,-9 c -8.25512,-7.34183 -8.15973,-7.78842 -12.2,-12.3 l -3.8,-3.5 -4.51187,-4.78712 C 403.23727,433.86041 398.51833,429.49526 389.3,420.4 383.35105,414.40907 379.24644,410.11401 373.01137,403.33831 L 366.5,396.7 l -4.4,3.9 -4.3,4 -8.1,7.5 -8.1,7.5 v 1.3 1.3 l 13.4,13.4 13.3,13.3 v 1.6 1.6 l -1.6,0.8 -1.6,0.9 -25.8,0.6 -25.8,0.7 -7.1,-7.2 -7.1,-7.3 -1.8,-1.8 -1.9,-1.9 -37,-38 -37.1,-38 -10.9,-11.5 -10.8,-11.4 v -1.7 -1.6 l 10.4,-9.3 10.3,-9.3 3.4,-2.9 3.3,-2.9 h 0.9 0.9 l 49.6,49.4 49.7,49.3 2,1.4 2.1,1.4 2.9,-2.5 3,-2.4 9.7,-9.2 9.8,-9.1 -50.9,-50.9 -50.9,-50.9 v -1.4 -1.5 l 4.9,-4.5 4.8,-4.5 17.4,-15.7 17.5,-15.6 10.4,-9.5 10.4,-9.6 v -1.2 -1.3 l -8.5,-8.8 -8.4,-8.8 -3.5,-2.8 -3.5,-2.8 -2,1.3 -1.9,1.4 -33.3,30.8 -33.3,30.8 -27.2,25.2 -27.1,25.1 -27.4,25.7 -27.4,25.7 v 21.8 21.8 l -0.6,21.3 -0.6,21.3 -17.6,0.4 -17.6,0.4 -1.6,-0.8 -1.6,-0.8 -0.3,-130 -0.2,-130 H 58.5 39.1 l -0.2,146.8 -0.2,146.8 0.8,0.9 0.9,0.8 53.7,0.3 53.7,0.3 3.7,-0.6 3.7,-0.7 0.4,-54.3 0.5,-54.3 7,-7.2 6.9,-7.1 h 1 1 l 62.4,63.1 62.5,63 43.8,0.3 43.8,0.2 z m -299,-188.5 2.2,-0.3 30.2,-27.6 30.1,-27.6 7.5,-6.9 7.4,-6.9 18.4,-16.7 18.4,-16.6 8.8,-7.8 8.8,-7.7 12.4,-11.2 12.3,-11.2 18.5,-16.4 18.4,-16.4 5.5,-5.1 5.6,-5.1 13.1,-11.9 13.1,-11.8 v -0.6 l -0.1,-0.6 -7.3,-8.7 -7.4,-8.7 v -1 -1.1 l 6.3,-0.6 6.2,-0.5 11.9,-1.5 12,-1.4 19.3,-1.9 19.4,-1.9 4.8,-0.5 4.8,-0.5 0.5,1.3 0.6,1.4 -0.9,5 -0.8,5 -2.8,12.4 -2.8,12.4 -4.4,20.5 -4.4,20.5 h -1 -1 l -10.1,-10.1 -10.1,-10.1 h -1.4 -1.4 l -21.2,19.4 -21.2,19.5 -13.8,12.5 -13.8,12.5 v 1.6 1.5 l 10.8,11.1 10.8,11.2 h 1.6 1.5 l 8.7,-8.1 8.8,-8 11.6,-10.3 11.6,-10.2 2.2,-2.4 2.3,-2.5 h 1 1.1 l 10.1,10.4 10,10.3 11.7,12 11.7,12 1.3,-1.4 1.3,-1.4 2,-9.6 2.1,-9.7 9.5,-40.1 9.6,-40 4.2,-17.5 4.3,-17.5 5.9,-25.3 5.9,-25.3 V 24.6 23 h -4 -4 l -16,1.8 -16,1.8 -21.2,2.4 -21.2,2.3 -34.5,3.7 -34.6,3.7 -20.2,2.3 -20.3,2.2 -6.9,0.6 -6.9,0.5 -1.2,0.4 -1.1,0.4 2.6,3.6 2.7,3.7 15.3,16.4 15.4,16.3 -0.3,1.9 -0.2,1.8 -13.9,12.8 -13.8,12.9 -56.6,51.5 -56.6,51.5 -1.3,0.5 -1.2,0.5 -0.8,-1.3 -0.8,-1.3 -0.1,-60.8 V 94.2 l -1.7,-1.5 -1.7,-1.5 -56.5,0.2 -56.6,0.2 -0.2,40.7 -0.2,40.48441 c 0.271022,2.37906 0.249148,2.49559 3,2.61559 h 18.1 18 l 0.7,-23 0.8,-23 0.6,-0.7 0.7,-0.6 18,-0.7 18.1,-0.6 0.7,1.2 0.7,1.1 v 84.8 l -0.1,84.9 0.5,0.7 0.5,0.8 z" fill="#5b21b6" fill-rule="evenodd"/>
</svg>