<svg xmlns="http://www.w3.org/2000/svg" width="512" height="512" viewBox="80 10 165 190">
  <rect x="80" y="10" width="165" height="190" rx="32" fill="#07070C"/>
  <path fill="#4C1D95" d="M184.474 54.0935C197.786 53.5605 211.483 54.6078 225.035 54.4721C221.993 58.5045 218.106 61.6037 214.372 65.0012C209.39 69.5287 204.436 74.0863 199.509 78.6737L129.493 144.054C125.932 147.282 119.613 153.891 115.776 156.185C111.273 156.363 106.494 156.202 101.97 156.126C101.274 148.591 101.534 137.287 101.483 129.483C104.166 125.015 115.489 115.003 119.897 110.724C132.931 98.1151 146.135 85.6821 159.503 73.4288C165.725 67.726 171.896 61.3203 178.383 55.9788C180.244 54.447 182.145 54.2163 184.474 54.0935Z"/>
  <path fill="#FF2800" d="M177.667 112.715C179.345 113.018 181.712 114.629 182.893 115.8C194.153 126.967 205.599 137.98 217.209 148.791C220.08 151.465 222.897 153.333 225.341 156.509C218.838 155.949 210.323 156.177 203.645 156.194C195.863 156.111 188.079 156.069 180.296 156.068C177.051 153.803 171.386 147.691 168.242 144.638C164.188 140.701 159.15 136.244 155.423 132.19C160.511 127.269 171.883 115.464 177.667 112.715Z"/>
  <path fill="#4C1D95" d="M104.486 54.3181C105.325 54.2092 106.257 54.2276 107.107 54.2596C116.768 54.6238 126.478 54.1851 136.125 54.3909C136.397 59.8433 136.471 75.6153 135.851 80.9555C130.705 86.2663 123.765 92.5078 118.215 98.0687C113.895 102.49 106.722 109.807 101.865 113.139C101.687 110.303 101.578 107.197 101.589 104.322C101.65 88.4911 101.167 72.5179 101.867 56.7195C101.913 55.6902 103.658 54.83 104.486 54.3181Z"/>
</svg>
