<?xml version="1.0" encoding="utf-8" ?><svg xmlns="http://www.w3.org/2000/svg" xmlns:xlink="http://www.w3.org/1999/xlink" width="533" height="573" viewBox="0 0 533 573"><path fill="#EEE" d="M0 0L533 0L533 573L0 573L0 0Z"/><defs><linearGradient id="gradient_0" gradientUnits="userSpaceOnUse" x1="388.09509" y1="568.82831" x2="146.35504" y2="5.591907"><stop offset="0" stop-color="#000406"/><stop offset="1" stop-color="#160032"/></linearGradient></defs><path fill="url(#gradient_0)" d="M51.2707 518.123C50.5068 516.939 46.6957 512.482 45.62 511.139C42.1126 506.82 38.9 502.269 36.0041 497.518C16.8671 465.738 19.3008 436.31 19.274 400.992L19.2911 319.446L19.3116 198.319L19.3243 159.781C19.311 139.093 18.4384 127.501 23.4908 107.204C29.3377 84.5926 41.8401 64.258 59.3784 48.8345C76.2215 34.2703 99.8407 22.8744 122.083 20.7756C135.491 19.5105 149.966 20.0027 163.509 20.0133L232.265 19.9911L346.622 19.9994L384.354 19.9533C392.118 19.9375 400.501 19.6127 408.219 20.1216C465.673 23.91 512.043 73.1252 514.684 130.274C514.974 136.537 514.959 142.758 514.988 149.02L514.962 181.48L514.957 267.826L514.904 387.852L514.921 420.343C514.962 428.265 515.169 436.281 514.712 444.18C514.125 454.32 511.999 462.974 509.522 472.712C510.384 476.063 502.74 491.961 500.633 495.508C496.406 502.787 491.465 509.626 485.881 515.925C483.493 518.598 480.482 521.353 478.3 523.907L478.583 524.589C472.332 536.763 467 531.212 461.04 537.611C456.733 542.235 432.531 550.208 431.747 551.04C431.291 552.461 430.645 552.534 429.264 553.326C421.167 557.971 414.438 555.416 406.771 555.834L406.574 555.583C406.301 555.241 406.419 555.371 406.118 555.092C398.072 555.664 389.993 555.531 381.928 555.517L352.166 555.509L253.686 555.511L165.851 555.509C157.072 555.512 148.327 555.459 139.55 555.781C135.999 555.912 131.94 555.371 128.367 555.248C126.099 555.119 122.806 555.728 120.328 555.24C118.043 554.791 117.474 553.754 114.754 553.266C95.4965 549.902 77.4152 541.683 62.2185 529.386C59.1592 526.942 52.9682 521.552 51.2707 518.123Z"/><path fill="#BFBDBE" d="M51.2707 518.123C54.5627 521.377 57.7973 524.679 61.3303 527.671C72.1965 536.713 84.6169 543.703 97.985 548.3C108.336 551.756 119.075 553.919 129.957 554.741C136.402 555.167 143.487 554.981 149.996 554.943C159.069 554.874 168.142 554.86 177.214 554.902L280.105 554.918L363.321 554.881L389.13 554.87C396.909 554.86 403.942 554.959 411.683 554.148C425.374 552.604 438.687 548.667 451.015 542.515C471.89 532.206 490.539 512.736 501.563 492.305C504.428 486.995 507.583 478.453 509.522 472.712C510.384 476.063 502.74 491.961 500.633 495.508C496.406 502.787 491.465 509.626 485.881 515.925C483.493 518.598 480.482 521.353 478.3 523.907L478.583 524.589C472.332 536.763 467 531.212 461.04 537.611C456.733 542.235 432.531 550.208 431.747 551.04C431.291 552.461 430.645 552.534 429.264 553.326C421.167 557.971 414.438 555.416 406.771 555.834L406.574 555.583C406.301 555.241 406.419 555.371 406.118 555.092C398.072 555.664 389.993 555.531 381.928 555.517L352.166 555.509L253.686 555.511L165.851 555.509C157.072 555.512 148.327 555.459 139.55 555.781C135.999 555.912 131.94 555.371 128.367 555.248C126.099 555.119 122.806 555.728 120.328 555.24C118.043 554.791 117.474 553.754 114.754 553.266C95.4965 549.902 77.4152 541.683 62.2185 529.386C59.1592 526.942 52.9682 521.552 51.2707 518.123Z"/><path fill="#4F019B" d="M161.669 309.161C166.615 303.675 173.4 297.649 178.781 292.394L207.296 264.645C213.423 258.783 219.606 253.178 225.66 247.199C247.409 225.64 269.313 204.237 291.371 182.994C297.955 176.739 304.578 170.526 311.24 164.355C314.715 161.141 320.792 154.771 325.016 153.012C331.331 150.38 343.323 151.137 350.294 150.954C365.565 150.418 380.842 150.087 396.122 149.962L413.389 149.764C418.078 149.716 424.314 149.452 428.801 150.366C426.716 152.768 423.994 155.939 421.602 158.006C404.786 172.531 389.759 188.863 373.058 203.507C370.928 205.375 368.787 207.277 366.696 209.188L281.582 288.176C261.607 307.046 241.799 326.091 222.157 345.307L203.256 364.211C201.14 366.323 196.439 371.262 194.38 372.991C193.424 374.373 184.679 382.98 182.978 384.743L148.463 420.259C147.023 421.719 141.583 427.07 140.142 427.687C136.512 429.24 127.237 428.987 123.125 429.014C122.454 423.085 122.629 416.351 122.61 410.359L122.532 384.781L122.49 364.341C122.482 360.145 122.422 355.888 122.766 351.701C123.231 346.053 129.231 341.341 132.959 337.32C138.964 330.841 145.498 324.552 151.949 318.494C155.009 315.62 158.457 311.698 161.669 309.161Z"/><path fill="#210156" d="M123.125 429.014C122.454 423.085 122.629 416.351 122.61 410.359L122.532 384.781L122.49 364.341C122.482 360.145 122.422 355.888 122.766 351.701C123.231 346.053 129.231 341.341 132.959 337.32C138.964 330.841 145.498 324.552 151.949 318.494C155.009 315.62 158.457 311.698 161.669 309.161C155.332 318.758 140.764 328.326 133.43 337.968C131.001 341.161 124.91 345.423 123.786 350.009C122.817 356.816 123.239 365.669 123.236 372.595L123.238 390.356C123.241 392.874 123.041 397.792 123.573 400.157C124.636 397.999 124.441 398.208 126.105 396.396C127.742 394.615 129.85 394.591 132.159 394.027C135.915 393.494 141.88 393.355 145.099 395.669C148.258 397.939 144.459 404.155 145.511 407.947C146.804 412.605 151.199 412.978 149.961 417.728L174.117 392.967C177.181 389.8 191.463 374.279 194.38 372.991C193.424 374.373 184.679 382.98 182.978 384.743L148.463 420.259C147.023 421.719 141.583 427.07 140.142 427.687C136.512 429.24 127.237 428.987 123.125 429.014Z"/><defs><linearGradient id="gradient_1" gradientUnits="userSpaceOnUse" x1="156.08116" y1="312.62354" x2="176.45268" y2="183.04289"><stop offset="0" stop-color="#2D027D"/><stop offset="1" stop-color="#6C02C8"/></linearGradient></defs><path fill="url(#gradient_1)" d="M122.329 169.917C122.219 165.176 121.328 159.195 125.026 155.626C126.642 154.066 128.661 153.022 130.93 152.838C136.711 152.547 142.809 152.738 148.606 152.74L180.551 152.471C184.672 152.428 188.718 152.067 192.822 151.92C201.849 151.595 210.897 151.271 219.926 151.056C223.282 150.975 225.621 152.465 225.703 155.994C225.889 163.967 225.768 171.988 225.566 179.962C225.563 179.988 225.559 180.015 225.555 180.042C225.75 184.429 225.548 188.851 225.552 193.242C225.556 197.228 226.163 205.397 225.168 208.985C224.271 212.223 211.693 223.456 208.502 226.527C190.161 244.173 171.342 261.321 153.178 279.154L132.169 299.985C130.115 302.047 125.548 307.307 123.546 308.529L123.219 308.414C122.238 306.018 122.534 291.302 122.509 287.55L122.343 251.418C122.283 224.504 121.859 196.725 122.329 169.917Z"/><path fill="#4F019B" d="M122.329 169.917C122.219 165.176 121.328 159.195 125.026 155.626C126.642 154.066 128.661 153.022 130.93 152.838C136.711 152.547 142.809 152.738 148.606 152.74L180.551 152.471C184.672 152.428 188.718 152.067 192.822 151.92C201.849 151.595 210.897 151.271 219.926 151.056C223.282 150.975 225.621 152.465 225.703 155.994C225.889 163.967 225.768 171.988 225.566 179.962C225.563 179.988 225.559 180.015 225.555 180.042C223.409 182.605 226.392 193.614 223.848 194.517C218.922 191.827 208.082 191.147 202.414 191.718C200.417 191.96 198.021 192.474 196.072 192.831C184.974 194.86 176.688 192.958 166.555 188.472C165.497 188.003 159.526 186.508 158.875 185.98C154.776 182.659 151.005 180.684 145.837 179.385C140.139 177.82 139.935 176.439 133.971 178.376C133.376 179.136 132.751 180.065 132.185 180.862C126.384 180.372 126.804 188.102 123.473 190.855C122.795 191.416 123.027 191.782 123.015 192.672C122.956 189.885 123.104 171.033 122.329 169.917Z"/><path fill="#FC0402" d="M292.731 310.929C295.42 310.687 298.354 310.757 301.046 310.912C304.906 313.438 309.969 318.817 313.597 322.136C323.526 331.217 332.96 340.88 342.645 350.203L389.327 394.508C393.244 398.223 400.787 404.498 404.078 408.478C407.128 412.164 421.243 423.331 422.456 426.104C422.073 427.464 420.495 428.164 419.205 428.284C413.99 428.769 408.588 428.558 403.349 428.598L369.96 428.789C357.142 428.673 344.323 428.632 331.505 428.665C326.673 428.679 314.55 429.033 310.384 428.384C306.409 425.6 301.523 420.528 297.87 417.065C289.244 408.959 280.721 400.744 272.304 392.422C262.473 382.863 252.693 373.483 242.294 364.544C240.443 362.953 239.494 361.476 240.916 359.285C243.887 354.703 248.067 351.103 251.93 347.291C257.974 341.296 264.366 335.665 270.501 329.779L281.64 319.046C284.984 315.823 288.115 312.056 292.731 310.929Z"/></svg>