<svg xmlns="http://www.w3.org/2000/svg" width="717" height="207" viewBox="0 0 717 207">
  <rect width="717" height="207" rx="14" fill="#16161B"/>
  <path fill="#4C1D95" d="M184.474 54.0935C197.786 53.5605 211.483 54.6078 225.035 54.4721C221.993 58.5045 218.106 61.6037 214.372 65.0012C209.39 69.5287 204.436 74.0863 199.509 78.6737L129.493 144.054C125.932 147.282 119.613 153.891 115.776 156.185C111.273 156.363 106.494 156.202 101.97 156.126C101.274 148.591 101.534 137.287 101.483 129.483C104.166 125.015 115.489 115.003 119.897 110.724C132.931 98.1151 146.135 85.6821 159.503 73.4288C165.725 67.726 171.896 61.3203 178.383 55.9788C180.244 54.447 182.145 54.2163 184.474 54.0935Z"/>
  <path fill="#FFFFFF" d="M471.607 69.1158L484.657 69.4099C484.555 82.0026 484.591 94.5961 484.763 107.188C484.824 114.411 485.051 121.732 484.528 128.845C483.33 145.117 466.357 144.137 454.362 144.02C450 143.977 445.603 144.164 441.263 143.699C438.172 143.093 435.191 141.567 433.042 139.243C431.372 137.439 430.164 135.257 429.522 132.884C427.958 127.288 428.614 114.893 428.566 108.623C428.528 103.697 430.128 97.9071 433.955 94.4369C435.554 92.9837 437.48 91.9395 439.57 91.3936C445.767 89.7255 464.784 90.3946 471.662 90.7413C471.4 83.5355 471.382 76.3228 471.607 69.1158Z"/>
  <path fill="#16161B" d="M449.08 102.446C456.053 102.22 464.59 102.385 471.503 102.603C471.332 106.978 472.032 127.082 469.987 129.473C468.349 131.387 465.885 131.379 463.576 131.592C459.705 131.662 446.751 132.428 443.056 130.712C441.963 129.602 441.012 125.469 441.136 124.271C441.953 116.325 437.289 102.976 449.08 102.446Z"/>
  <path fill="#FFFFFF" d="M370.471 90.2032C372.359 90.1344 374.248 90.0936 376.137 90.081C398.988 90.0457 397.021 101.936 397.392 119.683C397.924 145.137 387.752 144.088 366.683 143.955C350.377 144.074 339.909 143.463 340.079 123.921C340.13 118.083 339.614 111.822 339.977 105.947C341.043 88.6441 358.099 90.4491 370.471 90.2032Z"/>
  <path fill="#16161B" d="M360.832 102.437C365.137 102.336 379.705 101.899 382.578 103.802C385.196 107.413 384.57 124.65 383.093 129.221C382.546 130.914 377.839 131.484 376.285 131.665C367.518 131.826 350.896 135.135 352.998 123.108C353.929 117.781 351.412 109.224 354.666 104.443C355.896 102.636 359.027 102.528 360.832 102.437Z"/>
  <path fill="#FFFFFF" d="M506.305 90.5101C514.23 90.0869 524.492 89.9974 532.399 90.6728C548.313 92.0322 546.733 111.72 545.066 122.748C533.004 123.839 517.874 122.351 504.818 123.321C505.006 132.235 505.559 132.611 514.429 132.407C519.608 132.288 524.967 132.153 530.161 131.976C535.331 131.741 540.296 131.744 545.471 131.742C543.668 135.493 539.167 140.771 536.301 143.831C532.009 144.071 507.212 144.206 503.837 143.543C501.649 143.129 499.594 142.187 497.852 140.799C493.068 137.059 491.903 131.499 491.925 125.727C492.091 118.09 491.018 109.763 492.423 102.259C493.807 94.8716 499.364 91.3001 506.305 90.5101Z"/>
  <path fill="#16161B" d="M508.116 102.398C508.87 102.36 509.624 102.326 510.378 102.298C513.528 102.18 530.213 101.589 531.937 103.186C533.27 105.267 533.381 109.37 533.092 111.767C532.267 112.578 531.971 112.333 530.572 112.401C522.316 112.579 513.512 112.402 505.216 112.378C505.196 109.792 505.019 106.168 506.113 103.817C506.649 102.665 506.988 102.772 508.116 102.398Z"/>
  <path fill="#FF2800" d="M177.667 112.715C179.345 113.018 181.712 114.629 182.893 115.8C194.153 126.967 205.599 137.98 217.209 148.791C220.08 151.465 222.897 153.333 225.341 156.509C218.838 155.949 210.323 156.177 203.645 156.194C195.863 156.111 188.079 156.069 180.296 156.068C177.051 153.803 171.386 147.691 168.242 144.638C164.188 140.701 159.15 136.244 155.423 132.19C160.511 127.269 171.883 115.464 177.667 112.715Z"/>
  <path fill="#4C1D95" d="M104.486 54.3181C105.325 54.2092 106.257 54.2276 107.107 54.2596C116.768 54.6238 126.478 54.1851 136.125 54.3909C136.397 59.8433 136.471 75.6153 135.851 80.9555C130.705 86.2663 123.765 92.5078 118.215 98.0687C113.895 102.49 106.722 109.807 101.865 113.139C101.687 110.303 101.578 107.197 101.589 104.322C101.65 88.4911 101.167 72.5179 101.867 56.7195C101.913 55.6902 103.658 54.83 104.486 54.3181Z"/>
  <path fill="#FFFFFF" d="M321.684 69.1231C326.489 69.0137 334.858 68.7126 339.415 69.3823C329.417 81.0054 315.406 95.9566 304.725 106.8C306.482 109.353 308.621 111.604 310.802 113.83C318.983 122.177 327.242 130.461 335.408 138.822C336.996 140.449 338.781 141.818 340.18 143.617C336.769 144.235 325.111 144.199 321.44 143.997C317.71 140.549 312.497 134.707 308.924 130.908C301.992 123.538 293.705 115.169 287.9 106.963C290.249 103.231 319.47 70.3791 321.684 69.1231Z"/>
  <path fill="#FFFFFF" d="M546.968 90.3076C551.098 90.0509 558.046 90.2979 562.355 90.3254C576.751 107.826 592.1 127.431 607.848 143.665C603.015 144.215 595.316 144.05 590.354 143.957C588.428 140.855 583.534 135.345 581.049 132.414C579.538 130.677 578.532 129.374 577.184 127.529C574.1 130.325 566.607 140.083 562.792 144.149C557.792 144.249 552.103 144.033 547.051 143.944C550.162 139.498 567.651 120.552 568.016 118.193C568.163 117.24 567.819 116.36 567.32 115.562C565.83 113.178 563.529 110.927 561.726 108.749C556.724 102.707 551.466 96.7393 546.968 90.3076Z"/>
  <path fill="#FFFFFF" d="M270.223 69.2704C274.906 69.1777 279.968 69.2857 284.679 69.3001L284.67 118.051C284.667 125.852 284.953 136.6 284.286 144.109C279.582 144.131 274.877 144.115 270.173 144.061C269.949 140.745 269.956 136.92 270.018 133.574C270.415 112.351 269.311 90.4286 270.223 69.2704Z"/>
  <path fill="#FFFFFF" d="M405.882 69.4565C410.427 69.3688 414.973 69.3597 419.519 69.4291C419.491 93.9247 420.092 119.543 419.417 143.986C415.025 144.122 410.374 144.021 405.962 143.997C405.822 135.798 406.068 126.984 406.074 118.718L405.882 69.4565Z"/>
  <path fill="#FF2800" d="M597.574 90.1867C601.468 90.0186 605.121 89.8382 609.028 89.9549C605.476 95.4492 595.103 104.356 589.989 110.48L587.535 113.457C584.571 110.367 582.827 108.518 580.734 104.803C582.936 102.03 586.44 98.6442 588.879 95.6327C591.629 92.2351 593.347 90.4695 597.574 90.1867Z"/>
</svg>